<?xml version="1.0" standalone="no"?>
<!DOCTYPE svg PUBLIC "-//W3C//DTD SVG 20010904//EN"
 "http://www.w3.org/TR/2001/REC-SVG-20010904/DTD/svg10.dtd">
<svg version="1.0" xmlns="http://www.w3.org/2000/svg"
 width="471.000000pt" height="471.000000pt" viewBox="0 0 471.000000 471.000000"
 preserveAspectRatio="xMidYMid meet">
<metadata>
Created by potrace 1.11, written by Peter Selinger 2001-2013
</metadata>
<g transform="translate(0.000000,471.000000) scale(0.100000,-0.100000)"
fill="#000000" stroke="none">
<path d="M882 4684 c-21 -14 -22 -22 -22 -138 l0 -124 -107 -4 c-94 -4 -115
-8 -157 -31 -27 -15 -55 -27 -63 -27 -23 0 -168 -150 -193 -200 -13 -25 -22
-47 -21 -49 2 -2 -1 -7 -6 -10 -5 -3 -17 -33 -26 -66 -17 -56 -18 -167 -15
-1820 4 -1842 2 -1775 45 -1880 33 -79 140 -215 170 -215 7 0 13 -4 13 -9 0
-12 54 -43 126 -72 l59 -24 1630 -3 c1118 -2 1652 1 1699 8 66 10 96 20 175
59 29 14 139 114 166 152 48 67 82 154 95 244 6 44 10 708 10 1784 0 1574 -1
1720 -17 1775 -9 34 -19 63 -22 66 -10 8 -35 64 -33 72 1 4 -38 47 -86 95
-116 116 -180 146 -329 151 l-103 4 0 123 c0 159 2 157 -134 154 -138 -2 -136
1 -136 -156 l0 -123 -535 0 -535 0 0 124 c0 159 3 156 -135 156 -135 0 -135 0
-135 -162 l0 -118 -565 0 -565 0 0 124 c0 100 -3 128 -16 140 -22 23 -200 23
-232 0z"/>
</g>
</svg>
