<?xml version="1.0" standalone="no"?>
<!DOCTYPE svg PUBLIC "-//W3C//DTD SVG 20010904//EN"
 "http://www.w3.org/TR/2001/REC-SVG-20010904/DTD/svg10.dtd">
<svg version="1.0" xmlns="http://www.w3.org/2000/svg"
 width="1024.000000pt" height="1024.000000pt" viewBox="0 0 1024.000000 1024.000000"
 preserveAspectRatio="xMidYMid meet">
<metadata>
Created by potrace 1.11, written by Peter Selinger 2001-2013
</metadata>
<g transform="translate(0.000000,1024.000000) scale(0.100000,-0.100000)"
fill="#000000" stroke="none">
<path d="M2370 10233 c-482 -35 -957 -216 -1359 -516 -124 -92 -396 -364 -488
-488 -270 -361 -426 -737 -500 -1199 -17 -109 -18 -253 -18 -2905 0 -2994 -3
-2828 51 -3095 58 -284 206 -638 372 -885 366 -547 933 -939 1562 -1080 286
-65 48 -60 3120 -60 2261 0 2804 3 2885 13 582 78 1095 332 1502 743 404 409
648 909 725 1484 19 148 19 5602 0 5750 -43 321 -142 627 -292 905 -346 639
-975 1117 -1676 1274 -291 66 -32 60 -3079 62 -1518 0 -2780 -1 -2805 -3z
m1450 -4105 c0 -1957 2 -2296 15 -2373 47 -289 166 -521 380 -736 198 -199
415 -320 675 -376 130 -28 471 -25 595 5 271 64 458 173 661 383 205 213 316
421 377 703 7 36 12 743 16 2326 5 1966 8 2278 21 2297 31 47 39 48 449 48
425 0 435 -1 460 -62 9 -21 11 -600 8 -2338 l-3 -2310 -21 -110 c-66 -335
-168 -591 -338 -845 -99 -148 -179 -245 -315 -380 -315 -316 -656 -515 -1055
-615 -185 -47 -350 -66 -574 -66 -383 0 -694 73 -1016 236 -241 122 -436 267
-630 466 -364 374 -560 772 -630 1279 -14 100 -17 339 -22 1877 l-6 1762 -156
56 c-86 30 -280 100 -431 153 l-275 98 -3 136 -3 136 168 58 c93 32 434 152
758 265 l590 208 153 0 152 1 0 -2282z"/>
</g>
</svg>
